<svg version="1" xmlns="http://www.w3.org/2000/svg" width="200" height="100" viewBox="0 0 754.000000 304.000000"><g fill="#FFFFF"><path d="M40 151v101h206V50H40v101zm198 0v93H48V58h190v93z"/><path d="M127.3 79.5c-18.8 4.1-34.6 18.7-40.3 37.3-1.1 3.5-2.3 10.6-2.6 15.9-.6 8.2-1.4 11.6-5.6 22.2-2.6 6.9-4.8 12.9-4.8 13.2 0 .4.7 1.5 1.6 2.3 1.1 1.2 3.6 1.6 9 1.6H92v9.4c0 8 .3 9.8 2.3 12.7 3.6 5.5 7.7 6.9 19.3 6.9 8.2 0 10.4.3 11.5 1.6.8.9 2.5 6 3.9 11.3l2.5 9.6h51l.3-16.3c.2-15.4.4-16.2 2.2-16.2 2.5 0 2.5-2.1 0-6.2-1.6-2.6-2-5.1-2-11.9 0-10.2.7-11.2 11.5-15.3 9.6-3.6 11.3-4.9 12.6-10.2.7-2.5 1.8-4.8 2.6-5.1 2.3-.9 4.5-6.2 3.8-9.4-.8-3.6-4.9-6.9-8.5-6.9-3.6 0-7.7 3.3-8.5 6.9-.8 3.9 1.8 8.9 5 9.7 2.9.7 3.4 3.9 1.1 7-.8 1-5.4 3.5-10.2 5.4-11.5 4.6-12.5 6-13.3 18.7-.4 7-1.1 10.5-2.3 12.3-2.4 3.2-2.3 5 .2 5 1.9 0 2 .7 2 15v15h-6v-22.2c0-21.7 0-22.2 2.5-26.3 2.5-4.4 2.4-5.5-.7-5.5-1.5 0-1.8-.8-1.8-6 0-6.6 2.1-10 6.1-10 5.8 0 8.9-5.3 8.9-15.5 0-6.1.2-6.7 3.2-9.4 4.3-3.8 4.5-9.2.4-12.7-1.5-1.3-3.3-2.4-4.1-2.4-.8 0-2.9-2.8-4.7-6.2-6.6-12.4-19.1-22-32.9-25.3-7.7-1.8-14.3-1.8-22.6 0zm31.2 6.5c8.1 3.8 17.7 12.9 21.5 20.1l2.4 4.7-2.7 3.2c-3.7 4.3-3.5 7.5.8 11.6 3.4 3.2 3.5 3.4 3.5 11.3 0 7.1-.2 8.2-2.2 9.5-1.2.9-3.3 1.6-4.6 1.6-1.2 0-3.4 1.1-4.7 2.5-2.2 2.1-2.5 3.3-2.5 9.5 0 6.8-.1 7-2.5 7-1.4 0-2.5.5-2.5 1 0 .6 1.1 2.8 2.5 5 2.5 3.9 2.5 4.2 2.5 25.5V220h-3c-3 0-3-.1-3-5.3 0-3.5.7-6.2 2-8.2 2.6-3.9 2.6-6.5 0-6.5-2 0-2-.7-2-44 0-37.5.2-44 1.4-44 2.2 0 5.6-4.9 5.6-8.2 0-2-1-4-3-6-2.7-2.6-3.6-3-6.8-2.5-4.7.8-7.2 3.8-7.2 8.8 0 3.2.6 4.3 3.5 6.6l3.5 2.8v43.2c0 42.2 0 43.3-1.9 43.3-3.2 0-3.4 1.8-.6 6.6 2 3.4 2.5 5.5 2.3 9.2-.3 4.3-.5 4.7-3 5l-2.8.3v-19.5c0-18.3.1-19.6 1.8-19.6 3.1 0 3.3-1.1.7-5.9-1.9-3.7-2.5-6.4-2.7-13.9-.3-8.9-.5-9.5-3.1-11.8-1.5-1.3-3.8-2.4-5.1-2.4-4.8 0-6.1-2.2-6.5-11.4-.2-6 0-8.6.8-8.6 2.6 0 6.1-4.9 6.1-8.5 0-10.1-14.7-11.8-16.6-1.9-.8 4.4.8 8.1 4.1 9.6 2.4 1.1 2.5 1.5 2.5 9.5s.2 8.6 2.9 11.4c1.7 1.7 4 2.9 5.5 2.9 4.6 0 5.6 2.2 5.6 12.5 0 7.7-.4 10-2.1 12.9-2.1 3.6-1.9 5.6.7 5.6 1.2 0 1.4 3.1 1.4 19v19h-3c-2.9 0-3-.1-3-5 0-4.3.3-5 1.9-5 3.1 0 3.2-1.3.5-5.9-2.3-4.1-2.4-5.1-2.4-22 0-22-.2-22.5-11.5-26.6-9.6-3.5-12.5-5.7-12.5-9.6 0-1.8.5-2.9 1.4-2.9 2.3 0 5.6-5 5.6-8.4 0-4.3-2.4-7.4-6.4-8.2-8.9-1.6-14.3 8.4-7.8 14.5 1.6 1.4 3.2 4.2 3.6 6.2.9 4.9 3.2 6.8 13.4 10.9 6.2 2.5 9 4.2 9.9 6 .9 1.7 1.3 7.8 1.3 18.9 0 15.8-.1 16.6-2.6 20.8-2.7 4.6-2.5 6.3.7 6.3 1.6 0 1.9.7 1.9 5v5h-4c-3.8 0-4-.1-5-4.3-4.7-18.3-4.5-18.1-19.4-18.5-16.8-.4-17.7-1.3-18.5-17.7l-.6-11-8.2-.3c-4.6-.2-8.3-.7-8.3-1.2s2.2-6.6 5-13.7c4.4-11.2 5-13.7 5-20.3.1-14.7 4.7-25.8 14.9-36.1 11.2-11.3 21-15 37.6-14.6 10.2.2 11.5.5 18 3.7zM594 117.5v7.5h-12v9.9l5.8.3 5.7.3.3 16.2.2 16.3h12.3l-.4-16.3-.4-16.2 5.8-.3 5.7-.3V125h-12v-15h-11v7.5zM354 125c-1.9.3-6.8.4-10.7.2l-7.3-.5V168h11v-10.3c0-5.6.5-11.9 1-13.9 1.3-4.6 5.2-7.8 9.6-7.8h3.4v-6c0-6.6.2-6.5-7-5zm-68 28.5V182h12v-8.1c0-6.6.3-8 1.4-7.6 11.3 4.4 24-.4 29.2-10.9 2.3-4.6 2.6-6.3 2.1-11-1.1-11-9.1-18.5-20.3-19.2-3.5-.2-7.7.1-9.4.6-1.8.7-3 .7-3 .1 0-.5-2.7-.9-6-.9h-6v28.5zm29.6-14.1c4.5 4.5 4.7 9.5.5 13.6-3.6 3.6-7.3 4.6-11.2 3-11-4.6-8.1-19.8 4-20 2.5 0 4.2.9 6.7 3.4zm61-13.4c-9.8 3-16.7 13.7-15.1 23.4 1.6 10.3 9.7 17.7 20.2 18.4 3.4.2 7.6-.1 9.3-.6 1.8-.7 3-.7 3-.1 0 .5 2.7.9 6 .9h6v-43h-5.9c-3.3 0-6.1.5-6.3 1.1-.2.7-1.2.7-3.1 0-3.3-1.3-10-1.3-14.1-.1zm14.7 14c8.4 9.4-4.5 22.6-14.2 14.4-3.8-3.2-4.9-8-2.7-12.3 3.5-6.7 11.8-7.7 16.9-2.1zm35.2-13.5c-5.5 1.9-11.9 9.2-13.4 15.1-2.5 9.7 1.9 19.2 11 23.8 5.6 2.8 13.4 3.5 18.3 1.6 2.5-.9 2.6-.8 2.6 3.1 0 5.1-1.3 7.5-5 9.4-6.3 3.3-12.7.7-15.1-6-1.3-3.5-1.4-3.5-7.2-3.5h-5.9l.6 3.7c3.2 17.6 26.7 24.6 38.8 11.7 5.4-5.8 5.8-8.1 5.8-35.4v-25h-5.9c-3.3 0-6.1.5-6.3 1.1-.2.7-1.2.7-3.1 0-3.8-1.5-10.4-1.3-15.2.4zm15.8 13.5c4.6 5.1 3.5 12.5-2.3 15.5-9.2 4.8-19.2-4.3-14.6-13.4 3.5-6.7 11.8-7.7 16.9-2.1zm21.7-5.7c0 5.2-.3 14.9-.7 21.5l-.6 12.2H475v-11.8c0-13.4 1.5-18 6.4-19.7 2.5-.9 3.1-.6 5.7 2.3 2.9 3.2 2.9 3.3 2.9 16.2v13h11v-13.4c0-12 .2-13.6 2.1-16 2.6-3.3 5.3-3.3 8.4-.1 2.4 2.3 2.5 2.9 2.5 16V168h12v-14.8c0-13.4-.2-15.2-2.2-19.2-2.8-5.4-6.2-8-11.6-8.7-6-.8-10.7.4-14.1 3.6-2.9 2.7-3.2 2.8-4.1 1.1-2.2-4-11.7-6.3-16.3-3.9-1.6.9-2.2.9-2.5 0-.2-.6-2.6-1.1-5.8-1.1H464v9.3zm78.9-6.5c-16.6 8.7-15.6 31.6 1.7 38.8 4 1.7 13.7 1.8 16.7.3 1.6-.9 2.2-.9 2.5 0 .2.6 2.7 1.1 6.3 1.1h5.9l-.2-21.3-.3-21.2-5.4-.3c-3-.2-5.7.1-6.1.7-.4.7-1.7.8-4 .1-6.1-1.7-11.4-1.2-17.1 1.8zm15.1 9.7c6.6 3.4 7.6 12.1 1.9 16.9-9.3 7.9-22.3-4.3-14.8-13.8 3.6-4.6 8-5.6 12.9-3.1zm66.7-11.8c-.4.3-.7 10-.7 21.5V168h12v-43h-5.3c-3 0-5.7.3-6 .7zm28.5 1.9c-11.3 5.6-15.1 17.2-9.4 28.5 3.9 7.7 10.1 11.4 19.1 11.4 3.6 0 7.6-.4 8.9-.8 2.2-.8 2.2-.7 2.2 7.2v8.1h12v-57h-5.9c-3.3 0-6.1.5-6.3 1.1-.2.7-1.2.7-3.1 0-5-1.9-11.9-1.3-17.5 1.5zm17.4 11.8c2.6 2.6 3.4 4.2 3.4 7.1 0 5.2-5.3 10.5-10.5 10.5s-10.5-5.3-10.5-10.5 5.3-10.5 10.5-10.5c2.9 0 4.5.8 7.1 3.4z"/></g></svg>