<?xml version="1.0" standalone="no"?>
<!DOCTYPE svg PUBLIC "-//W3C//DTDSVG20010904//EN"  "http://www.w3.org/TR/2001/REC-SVG-20010904/DTD/svg10.dtd">
<svg version="1.0" xmlns="http://www.w3.org/2000/svg" width="150.000000pt" height="75.000000pt" viewBox="0 0 754.000000 304.000000" preserveAspectRatio="xMidYMid meet">
    <metadata></metadata>
    <g transform="translate(0.000000,304.000000) scale(0.100000,-0.100000)" fill="#FFFFF" stroke="none">
        <path d="M400 1530 l0 -1010 1030 0 1030 0 0 1010 0 1010 -1030 0 -1030 0 0
                                                            -1010z m1980 0 l0 -930 -950 0 -950 0 0 930 0 930 950 0 950 0 0 -930z"/>
        <path d="M1273 2245 c-188 -41 -346 -187 -403 -373 -11 -35 -23 -106 -26 -159
                                                            -6 -82 -14 -116 -56 -222 -26 -69 -48 -129 -48 -132 0 -4 7 -15 16 -23 11 -12
                                                            36 -16 90 -16 l74 0 0 -94 c0 -80 3 -98 23 -127 36 -55 77 -69 193 -69 82 0
                                                            104 -3 115 -16 8 -9 25 -60 39 -113 l25 -96 255 0 255 0 3 163 c2 154 4 162
                                                            22 162 25 0 25 21 0 62 -16 26 -20 51 -20 119 0 102 7 112 115 153 96 36 113
                                                            49 126 102 7 25 18 48 26 51 23 9 45 62 38 94 -8 36 -49 69 -85 69 -36 0 -77
                                                            -33 -85 -69 -8 -39 18 -89 50 -97 29 -7 34 -39 11 -70 -8 -10 -54 -35 -102
                                                            -54 -115 -46 -125 -60 -133 -187 -4 -70 -11 -105 -23 -123 -24 -32 -23 -50 2
                                                            -50 19 0 20 -7 20 -150 l0 -150 -30 0 -30 0 0 222 c0 217 0 222 25 263 25 44
                                                            24 55 -7 55 -15 0 -18 8 -18 60 0 66 21 100 61 100 58 0 89 53 89 155 0 61 2
                                                            67 32 94 43 38 45 92 4 127 -15 13 -33 24 -41 24 -8 0 -29 28 -47 62 -66 124
                                                            -191 220 -329 253 -77 18 -143 18 -226 0z m312 -65 c81 -38 177 -129 215 -201
                                                            l24 -47 -27 -32 c-37 -43 -35 -75 8 -116 34 -32 35 -34 35 -113 0 -71 -2 -82
                                                            -22 -95 -12 -9 -33 -16 -46 -16 -12 0 -34 -11 -47 -25 -22 -21 -25 -33 -25
                                                            -95 0 -68 -1 -70 -25 -70 -14 0 -25 -5 -25 -10 0 -6 11 -28 25 -50 25 -39 25
                                                            -42 25 -255 l0 -215 -30 0 c-30 0 -30 1 -30 53 0 35 7 62 20 82 26 39 26 65 0
                                                            65 -20 0 -20 7 -20 440 0 375 2 440 14 440 22 0 56 49 56 82 0 20 -10 40 -30
                                                            60 -27 26 -36 30 -68 25 -47 -8 -72 -38 -72 -88 0 -32 6 -43 35 -66 l35 -28 0
                                                            -432 c0 -422 0 -433 -19 -433 -32 0 -34 -18 -6 -66 20 -34 25 -55 23 -92 -3
                                                            -43 -5 -47 -30 -50 l-28 -3 0 195 c0 183 1 196 18 196 31 0 33 11 7 59 -19 37
                                                            -25 64 -27 139 -3 89 -5 95 -31 118 -15 13 -38 24 -51 24 -48 0 -61 22 -65
                                                            114 -2 60 0 86 8 86 26 0 61 49 61 85 0 101 -147 118 -166 19 -8 -44 8 -81 41
                                                            -96 24 -11 25 -15 25 -95 0 -80 2 -86 29 -114 17 -17 40 -29 55 -29 46 0 56
                                                            -22 56 -125 0 -77 -4 -100 -21 -129 -21 -36 -19 -56 7 -56 12 0 14 -31 14
                                                            -190 l0 -190 -30 0 c-29 0 -30 1 -30 50 0 43 3 50 19 50 31 0 32 13 5 59 -23
                                                            41 -24 51 -24 220 0 220 -2 225 -115 266 -96 35 -125 57 -125 96 0 18 5 29 14
                                                            29 23 0 56 50 56 84 0 43 -24 74 -64 82 -89 16 -143 -84 -78 -145 16 -14 32
                                                            -42 36 -62 9 -49 32 -68 134 -109 62 -25 90 -42 99 -60 9 -17 13 -78 13 -189
                                                            0 -158 -1 -166 -26 -208 -27 -46 -25 -63 7 -63 16 0 19 -7 19 -50 l0 -50 -40
                                                            0 c-38 0 -40 1 -50 43 -47 183 -45 181 -194 185 -168 4 -177 13 -185 177 l-6
                                                            110 -82 3 c-46 2 -83 7 -83 12 0 5 22 66 50 137 44 112 50 137 50 203 1 147
                                                            47 258 149 361 112 113 210 150 376 146 102 -2 115 -5 180 -37z"/>
        <path d="M5940 1865 l0 -75 -60 0 -60 0 0 -50 0 -49 58 -3 57 -3 3 -162 2
                                                            -163 62 0 61 0 -4 163 -4 162 58 3 57 3 0 49 0 50 -60 0 -60 0 0 75 0 75 -55
                                                            0 -55 0 0 -75z"/>
        <path d="M3540 1790 c-19 -3 -68 -4 -107 -2 l-73 5 0 -217 0 -216 55 0 55 0 0
                                                            103 c0 56 5 119 10 139 13 46 52 78 96 78 l34 0 0 60 c0 66 2 65 -70 50z"/>
        <path d="M2860 1505 l0 -285 60 0 60 0 0 81 c0 66 3 80 14 76 113 -44 240 4
                                                            292 109 23 46 26 63 21 110 -11 110 -91 185 -203 192 -35 2 -77 -1 -94 -6 -18
                                                            -7 -30 -7 -30 -1 0 5 -27 9 -60 9 l-60 0 0 -285z m296 141 c45 -45 47 -95 5
                                                            -136 -36 -36 -73 -46 -112 -30 -110 46 -81 198 40 200 25 0 42 -9 67 -34z"/>
        <path d="M3766 1780 c-98 -30 -167 -137 -151 -234 16 -103 97 -177 202 -184
                                                            34 -2 76 1 93 6 18 7 30 7 30 1 0 -5 27 -9 60 -9 l60 0 0 215 0 215 -59 0
                                                            c-33 0 -61 -5 -63 -11 -2 -7 -12 -7 -31 0 -33 13 -100 13 -141 1z m147 -140
                                                            c84 -94 -45 -226 -142 -144 -38 32 -49 80 -27 123 35 67 118 77 169 21z"/>
        <path d="M4265 1775 c-55 -19 -119 -92 -134 -151 -25 -97 19 -192 110 -238 56
                                                            -28 134 -35 183 -16 25 9 26 8 26 -31 0 -51 -13 -75 -50 -94 -63 -33 -127 -7
                                                            -151 60 -13 35 -14 35 -72 35 l-59 0 6 -37 c32 -176 267 -246 388 -117 54 58
                                                            58 81 58 354 l0 250 -59 0 c-33 0 -61 -5 -63 -11 -2 -7 -12 -7 -31 0 -38 15
                                                            -104 13 -152 -4z m158 -135 c46 -51 35 -125 -23 -155 -92 -48 -192 43 -146
                                                            134 35 67 118 77 169 21z"/>
        <path d="M4640 1697 c0 -52 -3 -149 -7 -215 l-6 -122 61 0 62 0 0 118 c0 134
                                                            15 180 64 197 25 9 31 6 57 -23 29 -32 29 -33 29 -162 l0 -130 55 0 55 0 0
                                                            134 c0 120 2 136 21 160 26 33 53 33 84 1 24 -23 25 -29 25 -160 l0 -135 60 0
                                                            60 0 0 148 c0 134 -2 152 -22 192 -28 54 -62 80 -116 87 -60 8 -107 -4 -141
                                                            -36 -29 -27 -32 -28 -41 -11 -22 40 -117 63 -163 39 -16 -9 -22 -9 -25 0 -2 6
                                                            -26 11 -58 11 l-54 0 0 -93z"/>
        <path d="M5429 1762 c-166 -87 -156 -316 17 -388 40 -17 137 -18 167 -3 16 9
                                                            22 9 25 0 2 -6 27 -11 63 -11 l59 0 -2 213 -3 212 -54 3 c-30 2 -57 -1 -61 -7
                                                            -4 -7 -17 -8 -40 -1 -61 17 -114 12 -171 -18z m151 -97 c66 -34 76 -121 19
                                                            -169 -93 -79 -223 43 -148 138 36 46 80 56 129 31z"/>
        <path d="M6247 1783 c-4 -3 -7 -100 -7 -215 l0 -208 60 0 60 0 0 215 0 215
                                                            -53 0 c-30 0 -57 -3 -60 -7z"/>
        <path d="M6532 1764 c-113 -56 -151 -172 -94 -285 39 -77 101 -114 191 -114
                                        36 0 76 4 89 8 22 8 22 7 22 -72 l0 -81 60 0 60 0 0 285 0 285 -59 0 c-33 0
                                        -61 -5 -63 -11 -2 -7 -12 -7 -31 0 -50 19 -119 13 -175 -15z m174 -118 c26
                                        -26 34 -42 34 -71 0 -52 -53 -105 -105 -105 -52 0 -105 53 -105 105 0 52 53
                                        105 105 105 29 0 45 -8 71 -34z"/>
    </g>
</svg>
